<?xml version="1.0" standalone="no"?>
<!DOCTYPE svg PUBLIC "-//W3C//DTD SVG 20010904//EN"
 "http://www.w3.org/TR/2001/REC-SVG-20010904/DTD/svg10.dtd">
<svg version="1.0" xmlns="http://www.w3.org/2000/svg"
 width="2105.000000pt" height="1517.000000pt" viewBox="0 0 2105.000000 1517.000000"
 preserveAspectRatio="xMidYMid meet">
<metadata>
Created by potrace 1.16, written by Peter Selinger 2001-2019
</metadata>
<g transform="translate(0.000000,1517.000000) scale(0.100000,-0.100000)"
fill="#000000" stroke="none">
<path d="M130 12895 l0 -2225 805 0 805 0 0 -3055 0 -3055 -805 0 -805 0 0
-2240 0 -2240 4020 0 4020 0 0 2240 0 2240 -830 0 -830 0 0 1758 c1 1383 3
1754 13 1741 7 -9 908 -1209 2002 -2667 1095 -1458 1992 -2651 1995 -2651 3 0
898 1190 1990 2645 1092 1454 1993 2654 2002 2667 17 21 18 -68 18 -1735 l0
-1758 -830 0 -830 0 0 -2240 0 -2240 4020 0 4020 0 0 2240 0 2240 -805 0 -805
0 0 3055 0 3055 805 0 805 0 0 2225 0 2225 -3153 0 -3154 0 -2039 -2835
c-1121 -1559 -2041 -2834 -2044 -2834 -3 0 -923 1275 -2044 2834 l-2040 2835
-3153 0 -3153 0 0 -2225z m8265 -1030 c1166 -1620 2122 -2945 2125 -2945 3 0
959 1325 2124 2945 l2120 2945 2918 0 2918 0 -2 -1912 -3 -1913 -802 -3 -803
-2 0 -3365 0 -3365 805 0 805 0 0 -1930 0 -1930 -3710 0 -3710 0 0 1930 0
1930 830 0 830 0 0 2377 c0 1392 -4 2373 -9 2367 -5 -5 -975 -1296 -2156
-2869 -1181 -1573 -2151 -2860 -2155 -2860 -4 0 -974 1287 -2155 2860 -1181
1573 -2151 2864 -2156 2870 -5 5 -9 -995 -9 -2368 l0 -2377 830 0 830 0 0
-1930 0 -1930 -3710 0 -3710 0 0 1930 0 1930 805 0 805 0 0 3365 0 3365 -802
2 -803 3 -3 1913 -2 1912 2918 0 2918 0 2119 -2945z"/>
</g>
</svg>
